<?xml version="1.0" encoding="utf-8"?>
<!-- Generator: Adobe Illustrator 21.1.0, SVG Export Plug-In . SVG Version: 6.00 Build 0)  -->
<svg version="1.1" xmlns="http://www.w3.org/2000/svg" xmlns:xlink="http://www.w3.org/1999/xlink" x="0px" y="0px"
	 viewBox="0 0 100 92.3" style="enable-background:new 0 0 100 92.3;" xml:space="preserve">
<style type="text/css">
	.st0{display:none;}
	.st1{display:inline;fill:#FFC024;}
	.st2{fill:#FFC024;}
</style>
<g id="Layer_1" class="st0">
	<path class="st1" d="M59.7,21.3c-3.8-1.6-8-2.4-12.2-2.1c10.9,5.6,15.2,18.9,9.6,29.7S38.2,64,27.4,58.5c-1.2-0.6-2.4-1.4-3.5-2.2
		c5.6,13.9,21.4,20.6,35.2,15C73,65.7,79.7,49.9,74.1,36C71.5,29.4,66.3,24.1,59.7,21.3z"/>
</g>
<g id="Layer_2">
	<g>
		<path class="st2" d="M50,65c-10.5,0-18.8-8.3-18.8-18.8S39.5,27.4,50,27.4s18.8,8.3,18.8,18.8S60.5,65,50,65z"/>
		<path class="st2" d="M50,24.7c-1.6,0-2.7-1.1-2.7-2.7v-2.7c0-1.6,1.1-2.7,2.7-2.7s2.7,1.1,2.7,2.7V22C52.7,23.6,51.6,24.7,50,24.7
			z"/>
		<path class="st2" d="M50,75.7c-1.6,0-2.7-1.1-2.7-2.7v-2.7c0-1.6,1.1-2.7,2.7-2.7s2.7,1.1,2.7,2.7V73C52.7,74.6,51.6,75.7,50,75.7
			z"/>
		<path class="st2" d="M76.9,48.9h-2.7c-1.6,0-2.7-1.1-2.7-2.7c0-1.6,1.1-2.7,2.7-2.7h2.7c1.6,0,2.7,1.1,2.7,2.7
			C79.6,47.8,78.5,48.9,76.9,48.9z"/>
		<path class="st2" d="M25.8,48.9h-2.7c-1.6,0-2.7-1.1-2.7-2.7c0-1.6,1.1-2.7,2.7-2.7h2.7c1.6,0,2.7,1.1,2.7,2.7
			C28.5,47.8,27.4,48.9,25.8,48.9z"/>
		<path class="st2" d="M68.8,30c-1.6,0-2.7-1.1-2.7-2.7c0-0.8,0.3-1.3,0.8-1.9l2.7-2.7c1.1-1.1,2.7-1.1,3.8,0c1.1,1.1,1.1,2.7,0,3.8
			l-2.7,2.7C70.1,29.8,69.6,30,68.8,30z"/>
		<path class="st2" d="M31.2,30c-0.8,0-1.3-0.3-1.9-0.8l-2.7-2.7c-1.1-1.1-1.1-2.7,0-3.8c1.1-1.1,2.7-1.1,3.8,0l2.7,2.7
			c1.1,1.1,1.1,2.7,0,3.8C32.5,29.8,32,30,31.2,30z"/>
		<path class="st2" d="M71.5,70.3c-0.8,0-1.3-0.3-1.9-0.8l-2.7-2.7c-1.1-1.1-1.1-2.7,0-3.8c1.1-1.1,2.7-1.1,3.8,0l2.7,2.7
			c1.1,1.1,1.1,2.7,0,3.8C72.8,70.1,72.3,70.3,71.5,70.3z"/>
		<path class="st2" d="M28.5,70.3c-1.6,0-2.7-1.1-2.7-2.7c0-0.8,0.3-1.3,0.8-1.9l2.7-2.7c1.1-1.1,2.7-1.1,3.8,0s1.1,2.7,0,3.8
			l-2.7,2.7C29.9,70.1,29.3,70.3,28.5,70.3z"/>
	</g>
</g>
</svg>
