<svg width="220" height="300" viewBox="0 0 220 300" fill="none" xmlns="http://www.w3.org/2000/svg">
<path fill-rule="evenodd" clip-rule="evenodd" d="M109.562 219.124C170.072 219.124 219.124 170.072 219.124 109.562C219.124 49.0527 170.072 0 109.562 0C49.0721 0 0.0315428 49.0211 1.521e-05 109.504C5.07646e-06 109.512 0 109.52 0 109.529V109.562V280C0 291.046 8.95432 300 20 300H25.5497C36.5954 300 45.5497 291.046 45.5497 280V198.49C63.5568 211.474 85.6661 219.124 109.562 219.124ZM45.5497 112.652C47.1615 146.61 75.2044 173.648 109.562 173.648C144.956 173.648 173.648 144.956 173.648 109.562C173.648 74.1687 144.956 45.4766 109.562 45.4766C74.6805 45.4766 46.3077 73.345 45.4945 108.031C45.5311 108.526 45.5497 109.025 45.5497 109.529V112.652Z" fill="#C4C4C4"/>
<path fill-rule="evenodd" clip-rule="evenodd" d="M109.562 219.124C170.072 219.124 219.124 170.072 219.124 109.562C219.124 49.0527 170.072 0 109.562 0C49.0721 0 0.0315428 49.0211 1.521e-05 109.504C5.07646e-06 109.512 0 109.52 0 109.529V109.562V280C0 291.046 8.95432 300 20 300H25.5497C36.5954 300 45.5497 291.046 45.5497 280V198.49C63.5568 211.474 85.6661 219.124 109.562 219.124ZM45.5497 112.652C47.1615 146.61 75.2044 173.648 109.562 173.648C144.956 173.648 173.648 144.956 173.648 109.562C173.648 74.1687 144.956 45.4766 109.562 45.4766C74.6805 45.4766 46.3077 73.345 45.4945 108.031C45.5311 108.526 45.5497 109.025 45.5497 109.529V112.652Z" fill="url(#paint0_linear)"/>
<defs>
<linearGradient id="paint0_linear" x1="109.562" y1="0" x2="109.562" y2="219.124" gradientUnits="userSpaceOnUse">
<stop stop-color="#3E6CE1"/>
<stop offset="1" stop-color="#3FB0B8"/>
</linearGradient>
</defs>
</svg>